<svg width="236" height="89" viewBox="0 0 236 89" fill="none" xmlns="http://www.w3.org/2000/svg">
<path d="M14.675 48C10.9917 48 8.29167 47.1417 6.575 45.425C4.85833 43.7083 4 41.0083 4 37.325V25.9C4 22.1833 4.85833 19.475 6.575 17.775C8.29167 16.0583 10.975 15.2083 14.625 15.225H20.675C23.775 15.225 26.1 15.8667 27.65 17.15C29.2 18.4167 30.0667 20.4583 30.25 23.275C30.3167 23.7917 30.2167 24.1917 29.95 24.475C29.6833 24.7583 29.2833 24.9 28.75 24.9C27.7833 24.9 27.2333 24.375 27.1 23.325C26.9667 21.425 26.4083 20.125 25.425 19.425C24.4583 18.725 22.875 18.375 20.675 18.375H14.625C12.7583 18.3583 11.2833 18.5833 10.2 19.05C9.11667 19.5167 8.33333 20.3 7.85 21.4C7.38333 22.5 7.15 24 7.15 25.9V37.325C7.15 39.1917 7.38333 40.675 7.85 41.775C8.33333 42.875 9.125 43.6667 10.225 44.15C11.325 44.6167 12.8083 44.85 14.675 44.85H20.675C22.3417 44.85 23.65 44.6583 24.6 44.275C25.55 43.875 26.2167 43.2 26.6 42.25C27 41.3 27.2 39.9917 27.2 38.325V35.45L22.25 35.4C21.2 35.4 20.675 34.875 20.675 33.825C20.675 32.775 21.2 32.25 22.25 32.25L28.775 32.3C29.825 32.3 30.35 32.825 30.35 33.875V38.325C30.35 41.7083 29.575 44.1667 28.025 45.7C26.4917 47.2333 24.0417 48 20.675 48H14.675ZM39.7117 19.4C38.4117 19.4 37.7617 18.7417 37.7617 17.425V16.175C37.7617 14.8917 38.4117 14.25 39.7117 14.25H40.9367C42.1867 14.25 42.8117 14.8917 42.8117 16.175V17.425C42.8117 18.7417 42.1867 19.4 40.9367 19.4H39.7117ZM40.3117 48C39.2617 48 38.7367 47.475 38.7367 46.425V25.375C38.7367 24.325 39.2617 23.8 40.3117 23.8C41.3617 23.8 41.8867 24.325 41.8867 25.375V46.425C41.8867 47.475 41.3617 48 40.3117 48ZM57.4035 58C55.4202 58 53.8952 57.5917 52.8285 56.775C51.7618 55.9583 51.1035 54.7 50.8535 53C50.7868 52.4667 50.8868 52.05 51.1535 51.75C51.4368 51.4667 51.8452 51.325 52.3785 51.325C52.8785 51.325 53.2452 51.45 53.4785 51.7C53.7118 51.9667 53.8868 52.3583 54.0035 52.875C54.1535 53.625 54.4868 54.1417 55.0035 54.425C55.5202 54.7083 56.3202 54.85 57.4035 54.85H66.7035C68.1035 54.85 69.0368 54.6083 69.5035 54.125C69.9869 53.6417 70.2285 52.7083 70.2285 51.325V44.6C69.4285 45.7167 68.3368 46.5667 66.9535 47.15C65.5869 47.7167 63.9035 48 61.9035 48H60.0035C56.8202 48 54.4785 47.25 52.9785 45.75C51.4785 44.25 50.7285 41.925 50.7285 38.775V33.075C50.7285 29.8583 51.4702 27.5083 52.9535 26.025C54.4535 24.5417 56.8035 23.8 60.0035 23.8H64.1035C65.5869 23.8 66.8285 24.0083 67.8285 24.425C68.8285 24.825 69.6285 25.45 70.2285 26.3V25.375C70.2285 24.325 70.7535 23.8 71.8035 23.8C72.8535 23.8 73.3785 24.325 73.3785 25.375V51.325C73.3785 53.6083 72.8369 55.2917 71.7535 56.375C70.6868 57.4583 69.0035 58 66.7035 58H57.4035ZM60.0035 44.85H61.9035C64.3702 44.85 66.3702 44.4833 67.9035 43.75C69.4535 43.0167 70.2285 41.9 70.2285 40.4V31.5C70.2285 29.8 69.7119 28.6167 68.6785 27.95C67.6618 27.2833 66.1368 26.95 64.1035 26.95H60.0035C57.7035 26.95 56.1035 27.3833 55.2035 28.25C54.3202 29.1167 53.8785 30.725 53.8785 33.075V38.775C53.8785 41.0417 54.3202 42.625 55.2035 43.525C56.1035 44.4083 57.7035 44.85 60.0035 44.85ZM89.8594 48C87.2094 48 85.251 47.3667 83.9844 46.1C82.7177 44.8333 82.0844 42.875 82.0844 40.225C82.0844 37.5583 82.7177 35.5917 83.9844 34.325C85.251 33.0583 87.2094 32.425 89.8594 32.425H100.984C100.918 30.375 100.426 28.95 99.5094 28.15C98.6094 27.35 97.0594 26.95 94.8594 26.95H91.9594C89.9927 26.95 88.5427 27.1417 87.6094 27.525C86.6927 27.8917 86.101 28.5333 85.8344 29.45C85.6677 29.95 85.4594 30.3167 85.2094 30.55C84.976 30.7667 84.6177 30.875 84.1344 30.875C83.6177 30.875 83.2094 30.7333 82.9094 30.45C82.626 30.15 82.526 29.75 82.6094 29.25C82.926 27.35 83.851 25.9667 85.3844 25.1C86.9177 24.2333 89.1094 23.8 91.9594 23.8H94.8594C98.0594 23.8 100.401 24.55 101.884 26.05C103.384 27.5333 104.134 29.875 104.134 33.075V46.425C104.134 47.475 103.609 48 102.559 48C101.509 48 100.984 47.475 100.984 46.425V44.375C99.3344 46.7917 96.5594 48 92.6594 48H89.8594ZM89.8594 44.85H92.6594C94.1594 44.85 95.4927 44.6917 96.6594 44.375C97.8427 44.0583 98.8094 43.5333 99.5594 42.8C100.326 42.0667 100.801 41.075 100.984 39.825V35.575H89.8594C88.076 35.575 86.8594 35.9 86.2094 36.55C85.5594 37.2 85.2344 38.425 85.2344 40.225C85.2344 42.0083 85.5594 43.225 86.2094 43.875C86.8594 44.525 88.076 44.85 89.8594 44.85ZM121.696 47.975C118.763 47.975 116.546 47.3417 115.046 46.075C113.563 44.8083 112.721 42.825 112.521 40.125C112.488 39.6083 112.613 39.2083 112.896 38.925C113.179 38.6417 113.571 38.5 114.071 38.5C114.571 38.5 114.946 38.6333 115.196 38.9C115.463 39.1667 115.629 39.55 115.696 40.05C115.813 41.8333 116.321 43.075 117.221 43.775C118.121 44.475 119.613 44.825 121.696 44.825H128.896C131.196 44.825 132.779 44.3917 133.646 43.525C134.529 42.6417 134.971 41.0667 134.971 38.8C134.971 36.5 134.521 34.9167 133.621 34.05C132.738 33.1667 131.163 32.725 128.896 32.725H122.271C119.254 32.725 117.038 32.0167 115.621 30.6C114.204 29.1667 113.496 26.95 113.496 23.95C113.496 20.95 114.196 18.75 115.596 17.35C117.013 15.9333 119.221 15.225 122.221 15.225H128.871C131.621 15.225 133.696 15.825 135.096 17.025C136.513 18.2083 137.321 20.0667 137.521 22.6C137.571 23.1 137.454 23.5 137.171 23.8C136.888 24.0833 136.488 24.225 135.971 24.225C135.488 24.225 135.113 24.0917 134.846 23.825C134.579 23.5417 134.421 23.1583 134.371 22.675C134.238 21.0583 133.754 19.9417 132.921 19.325C132.088 18.6917 130.738 18.375 128.871 18.375H122.221C120.088 18.375 118.621 18.7833 117.821 19.6C117.038 20.4 116.646 21.85 116.646 23.95C116.646 26.05 117.046 27.5167 117.846 28.35C118.663 29.1667 120.138 29.575 122.271 29.575H128.896C132.046 29.575 134.371 30.325 135.871 31.825C137.371 33.3083 138.121 35.6333 138.121 38.8C138.121 41.95 137.371 44.2667 135.871 45.75C134.388 47.2333 132.063 47.975 128.896 47.975H121.696ZM148.564 48C147.514 48 146.989 47.475 146.989 46.425V14.725C146.989 13.675 147.514 13.15 148.564 13.15C149.614 13.15 150.139 13.675 150.139 14.725V27.225C151.789 24.9417 154.564 23.8 158.464 23.8H159.864C163.064 23.8 165.405 24.55 166.889 26.05C168.389 27.5333 169.139 29.875 169.139 33.075V46.425C169.139 47.475 168.614 48 167.564 48C166.514 48 165.989 47.475 165.989 46.425V33.075C165.989 30.7583 165.539 29.1583 164.639 28.275C163.755 27.3917 162.164 26.95 159.864 26.95H158.464C156.08 26.95 154.147 27.3 152.664 28C151.18 28.7 150.339 29.7917 150.139 31.275V46.425C150.139 47.475 149.614 48 148.564 48ZM186.81 48C183.627 48 181.285 47.25 179.785 45.75C178.285 44.25 177.535 41.925 177.535 38.775V33.075C177.535 29.8583 178.285 27.5083 179.785 26.025C181.285 24.525 183.627 23.7833 186.81 23.8H190.91C194.11 23.8 196.452 24.55 197.935 26.05C199.435 27.5333 200.185 29.875 200.185 33.075V38.725C200.185 41.9083 199.435 44.25 197.935 45.75C196.452 47.25 194.11 48 190.91 48H186.81ZM180.685 38.775C180.685 41.0583 181.127 42.6417 182.01 43.525C182.91 44.4083 184.51 44.85 186.81 44.85H190.91C193.227 44.85 194.827 44.4083 195.71 43.525C196.593 42.625 197.035 41.025 197.035 38.725V33.075C197.035 30.7583 196.593 29.1583 195.71 28.275C194.827 27.3917 193.227 26.95 190.91 26.95H186.81C185.277 26.9333 184.06 27.1167 183.16 27.5C182.277 27.8667 181.643 28.5 181.26 29.4C180.877 30.2833 180.685 31.5083 180.685 33.075V38.775ZM210.624 58C209.574 58 209.049 57.475 209.049 56.425V25.375C209.049 24.325 209.574 23.8 210.624 23.8C211.674 23.8 212.199 24.325 212.199 25.375V27.05C212.999 25.9833 214.083 25.175 215.449 24.625C216.833 24.075 218.524 23.8 220.524 23.8H222.424C225.624 23.8 227.966 24.55 229.449 26.05C230.949 27.5333 231.699 29.875 231.699 33.075V38.725C231.699 41.9083 230.949 44.25 229.449 45.75C227.966 47.25 225.624 48 222.424 48H212.199V56.425C212.199 57.475 211.674 58 210.624 58ZM212.199 44.85H222.424C224.741 44.85 226.341 44.4083 227.224 43.525C228.108 42.625 228.549 41.025 228.549 38.725V33.075C228.549 30.7583 228.108 29.1583 227.224 28.275C226.341 27.3917 224.741 26.95 222.424 26.95H220.524C218.058 26.95 216.091 27.3083 214.624 28.025C213.174 28.7417 212.366 29.8583 212.199 31.375V44.85Z" fill="white"/>
<path d="M20.3125 82.925C19.8292 82.7167 19.6833 82.3708 19.875 81.8875L25.9875 67.225C26.1625 66.8167 26.4583 66.6125 26.875 66.6125H26.9375C27.3458 66.6208 27.6292 66.825 27.7875 67.225L33.9375 81.8875C34.1458 82.3708 34.0042 82.7167 33.5125 82.925C33.0292 83.1167 32.6875 82.975 32.4875 82.5L30.9375 78.7875H22.875L21.3375 82.5C21.1458 82.9833 20.8042 83.125 20.3125 82.925ZM23.5125 77.2125H30.275L26.875 69.1L23.5125 77.2125ZM46.7826 70.9C47.3076 70.9 47.5701 71.1625 47.5701 71.6875V82.2125C47.5701 82.7375 47.3076 83 46.7826 83C46.2576 83 45.9951 82.7375 45.9951 82.2125V81.275C45.1785 82.425 43.791 83 41.8326 83H41.1326C39.541 83 38.3701 82.625 37.6201 81.875C36.8701 81.125 36.4951 79.9542 36.4951 78.3625V71.6875C36.4951 71.1625 36.7576 70.9 37.2826 70.9C37.8076 70.9 38.0701 71.1625 38.0701 71.6875V78.3625C38.0701 79.5125 38.291 80.3125 38.7326 80.7625C39.1826 81.2042 39.9826 81.425 41.1326 81.425H41.8326C43.0243 81.425 43.991 81.25 44.7326 80.9C45.4826 80.5417 45.9035 79.9958 45.9951 79.2625V71.6875C45.9951 71.1625 46.2576 70.9 46.7826 70.9ZM57.4309 83C55.8559 83 54.7017 82.6333 53.9684 81.9C53.235 81.1667 52.8684 80.0208 52.8684 78.4625V72.475H51.4684C50.9434 72.475 50.6809 72.2125 50.6809 71.6875C50.6809 71.1625 50.9434 70.9 51.4684 70.9H52.8684V68.5C52.8684 67.975 53.1309 67.7125 53.6559 67.7125C54.1809 67.7125 54.4434 67.975 54.4434 68.5V70.9H57.4934C58.0184 70.9 58.2809 71.1625 58.2809 71.6875C58.2809 72.2125 58.0184 72.475 57.4934 72.475H54.4434V78.4625C54.4434 79.5875 54.66 80.3625 55.0934 80.7875C55.5267 81.2125 56.3059 81.425 57.4309 81.425C57.7059 81.425 57.9059 81.4917 58.0309 81.625C58.1642 81.75 58.2309 81.9458 58.2309 82.2125C58.2309 82.7375 57.9642 83 57.4309 83ZM65.115 83C63.5234 83 62.3525 82.625 61.6025 81.875C60.8525 81.125 60.4775 79.9625 60.4775 78.3875V75.5375C60.4775 73.9292 60.8525 72.7542 61.6025 72.0125C62.3525 71.2625 63.5234 70.8917 65.115 70.9H67.165C68.765 70.9 69.9359 71.275 70.6775 72.025C71.4275 72.7667 71.8025 73.9375 71.8025 75.5375V78.3625C71.8025 79.9542 71.4275 81.125 70.6775 81.875C69.9359 82.625 68.765 83 67.165 83H65.115ZM62.0525 78.3875C62.0525 79.5292 62.2734 80.3208 62.715 80.7625C63.165 81.2042 63.965 81.425 65.115 81.425H67.165C68.3234 81.425 69.1234 81.2042 69.565 80.7625C70.0067 80.3125 70.2275 79.5125 70.2275 78.3625V75.5375C70.2275 74.3792 70.0067 73.5792 69.565 73.1375C69.1234 72.6958 68.3234 72.475 67.165 72.475H65.115C64.3484 72.4667 63.74 72.5583 63.29 72.75C62.8484 72.9333 62.5317 73.25 62.34 73.7C62.1484 74.1417 62.0525 74.7542 62.0525 75.5375V78.3875ZM83.8336 83C83.3086 83 83.0461 82.7375 83.0461 82.2125V67.4C83.0461 66.875 83.3086 66.6125 83.8336 66.6125H89.6836C91.1419 66.6125 92.2503 66.9917 93.0086 67.75C93.7669 68.5083 94.1461 69.6167 94.1461 71.075V71.825C94.1461 73.275 93.7669 74.3833 93.0086 75.15C92.2503 75.9083 91.1419 76.2875 89.6836 76.2875H84.6211V82.2125C84.6211 82.7375 84.3586 83 83.8336 83ZM84.6211 74.7125H89.6836C90.7086 74.7125 91.4461 74.4875 91.8961 74.0375C92.3461 73.5792 92.5711 72.8417 92.5711 71.825V71.075C92.5711 70.0583 92.3461 69.325 91.8961 68.875C91.4461 68.4167 90.7086 68.1875 89.6836 68.1875H84.6211V74.7125ZM101.137 83C99.8117 83 98.8326 82.6833 98.1992 82.05C97.5659 81.4167 97.2492 80.4375 97.2492 79.1125C97.2492 77.7792 97.5659 76.7958 98.1992 76.1625C98.8326 75.5292 99.8117 75.2125 101.137 75.2125H106.699C106.666 74.1875 106.42 73.475 105.962 73.075C105.512 72.675 104.737 72.475 103.637 72.475H102.187C101.203 72.475 100.478 72.5708 100.012 72.7625C99.5534 72.9458 99.2576 73.2667 99.1242 73.725C99.0409 73.975 98.9367 74.1583 98.8117 74.275C98.6951 74.3833 98.5159 74.4375 98.2742 74.4375C98.0159 74.4375 97.8117 74.3667 97.6617 74.225C97.5201 74.075 97.4701 73.875 97.5117 73.625C97.6701 72.675 98.1326 71.9833 98.8992 71.55C99.6659 71.1167 100.762 70.9 102.187 70.9H103.637C105.237 70.9 106.408 71.275 107.149 72.025C107.899 72.7667 108.274 73.9375 108.274 75.5375V82.2125C108.274 82.7375 108.012 83 107.487 83C106.962 83 106.699 82.7375 106.699 82.2125V81.1875C105.874 82.3958 104.487 83 102.537 83H101.137ZM101.137 81.425H102.537C103.287 81.425 103.953 81.3458 104.537 81.1875C105.128 81.0292 105.612 80.7667 105.987 80.4C106.37 80.0333 106.608 79.5375 106.699 78.9125V76.7875H101.137C100.245 76.7875 99.6367 76.95 99.3117 77.275C98.9867 77.6 98.8242 78.2125 98.8242 79.1125C98.8242 80.0042 98.9867 80.6125 99.3117 80.9375C99.6367 81.2625 100.245 81.425 101.137 81.425ZM113.668 83C113.143 83 112.88 82.7375 112.88 82.2125V71.6875C112.88 71.1625 113.143 70.9 113.668 70.9C114.193 70.9 114.455 71.1625 114.455 71.6875V73.2875C114.913 72.5125 115.543 71.9208 116.343 71.5125C117.143 71.1042 118.08 70.9 119.155 70.9C119.68 70.9 119.943 71.1625 119.943 71.6875C119.943 72.2125 119.68 72.475 119.155 72.475C117.688 72.475 116.555 72.7875 115.755 73.4125C114.963 74.0375 114.53 74.9083 114.455 76.025V82.2125C114.455 82.7375 114.193 83 113.668 83ZM127.719 83C126.144 83 124.99 82.6333 124.256 81.9C123.523 81.1667 123.156 80.0208 123.156 78.4625V72.475H121.756C121.231 72.475 120.969 72.2125 120.969 71.6875C120.969 71.1625 121.231 70.9 121.756 70.9H123.156V68.5C123.156 67.975 123.419 67.7125 123.944 67.7125C124.469 67.7125 124.731 67.975 124.731 68.5V70.9H127.781C128.306 70.9 128.569 71.1625 128.569 71.6875C128.569 72.2125 128.306 72.475 127.781 72.475H124.731V78.4625C124.731 79.5875 124.948 80.3625 125.381 80.7875C125.815 81.2125 126.594 81.425 127.719 81.425C127.994 81.425 128.194 81.4917 128.319 81.625C128.452 81.75 128.519 81.9458 128.519 82.2125C128.519 82.7375 128.252 83 127.719 83ZM134.904 82.9875C133.871 82.9875 133.071 82.7708 132.504 82.3375C131.937 81.8958 131.587 81.2292 131.454 80.3375C131.421 80.0708 131.475 79.8667 131.617 79.725C131.767 79.575 131.971 79.5 132.229 79.5C132.487 79.5 132.675 79.5667 132.792 79.7C132.917 79.825 133.004 80.0167 133.054 80.275C133.137 80.7 133.321 80.9958 133.604 81.1625C133.887 81.3292 134.321 81.4125 134.904 81.4125H139.004C139.746 81.4125 140.25 81.2792 140.517 81.0125C140.783 80.7458 140.917 80.2417 140.917 79.5C140.917 78.7583 140.783 78.2542 140.517 77.9875C140.25 77.7208 139.746 77.5875 139.004 77.5875H134.967C133.842 77.5875 133 77.3125 132.442 76.7625C131.892 76.2125 131.617 75.375 131.617 74.25C131.617 73.1 131.892 72.2542 132.442 71.7125C132.992 71.1625 133.833 70.8875 134.967 70.8875H138.879C140.796 70.8875 141.879 71.7167 142.129 73.375C142.179 73.6333 142.129 73.8375 141.979 73.9875C141.837 74.1292 141.633 74.2 141.367 74.2C141.117 74.2 140.929 74.1375 140.804 74.0125C140.687 73.8792 140.6 73.6917 140.542 73.45C140.467 73.075 140.304 72.8167 140.054 72.675C139.804 72.5333 139.412 72.4625 138.879 72.4625H134.967C134.275 72.4625 133.804 72.5833 133.554 72.825C133.312 73.0667 133.192 73.5417 133.192 74.25C133.192 74.925 133.317 75.3875 133.567 75.6375C133.817 75.8875 134.283 76.0125 134.967 76.0125H139.004C140.187 76.0125 141.062 76.3 141.629 76.875C142.204 77.4417 142.492 78.3167 142.492 79.5C142.492 80.6833 142.204 81.5625 141.629 82.1375C141.062 82.7042 140.187 82.9875 139.004 82.9875H134.904ZM157.582 82.9875C156.116 82.9875 155.007 82.6708 154.257 82.0375C153.516 81.4042 153.095 80.4125 152.995 79.0625C152.978 78.8042 153.041 78.6042 153.182 78.4625C153.324 78.3208 153.52 78.25 153.77 78.25C154.02 78.25 154.207 78.3167 154.332 78.45C154.466 78.5833 154.549 78.775 154.582 79.025C154.641 79.9167 154.895 80.5375 155.345 80.8875C155.795 81.2375 156.541 81.4125 157.582 81.4125H161.182C162.332 81.4125 163.124 81.1958 163.557 80.7625C163.999 80.3208 164.22 79.5333 164.22 78.4C164.22 77.25 163.995 76.4583 163.545 76.025C163.103 75.5833 162.316 75.3625 161.182 75.3625H157.87C156.362 75.3625 155.253 75.0083 154.545 74.3C153.837 73.5833 153.482 72.475 153.482 70.975C153.482 69.475 153.832 68.375 154.532 67.675C155.241 66.9667 156.345 66.6125 157.845 66.6125H161.17C162.545 66.6125 163.582 66.9125 164.282 67.5125C164.991 68.1042 165.395 69.0333 165.495 70.3C165.52 70.55 165.462 70.75 165.32 70.9C165.178 71.0417 164.978 71.1125 164.72 71.1125C164.478 71.1125 164.291 71.0458 164.157 70.9125C164.024 70.7708 163.945 70.5792 163.92 70.3375C163.853 69.5292 163.612 68.9708 163.195 68.6625C162.778 68.3458 162.103 68.1875 161.17 68.1875H157.845C156.778 68.1875 156.045 68.3917 155.645 68.8C155.253 69.2 155.057 69.925 155.057 70.975C155.057 72.025 155.257 72.7583 155.657 73.175C156.066 73.5833 156.803 73.7875 157.87 73.7875H161.182C162.757 73.7875 163.92 74.1625 164.67 74.9125C165.42 75.6542 165.795 76.8167 165.795 78.4C165.795 79.975 165.42 81.1333 164.67 81.875C163.928 82.6167 162.766 82.9875 161.182 82.9875H157.582ZM175.229 83C173.654 83 172.5 82.6333 171.766 81.9C171.033 81.1667 170.666 80.0208 170.666 78.4625V72.475H169.266C168.741 72.475 168.479 72.2125 168.479 71.6875C168.479 71.1625 168.741 70.9 169.266 70.9H170.666V68.5C170.666 67.975 170.929 67.7125 171.454 67.7125C171.979 67.7125 172.241 67.975 172.241 68.5V70.9H175.291C175.816 70.9 176.079 71.1625 176.079 71.6875C176.079 72.2125 175.816 72.475 175.291 72.475H172.241V78.4625C172.241 79.5875 172.458 80.3625 172.891 80.7875C173.325 81.2125 174.104 81.425 175.229 81.425C175.504 81.425 175.704 81.4917 175.829 81.625C175.962 81.75 176.029 81.9458 176.029 82.2125C176.029 82.7375 175.762 83 175.229 83ZM182.913 83C181.321 83 180.15 82.625 179.4 81.875C178.65 81.125 178.275 79.9625 178.275 78.3875V75.5375C178.275 73.9292 178.65 72.7542 179.4 72.0125C180.15 71.2625 181.321 70.8917 182.913 70.9H184.963C186.563 70.9 187.734 71.275 188.475 72.025C189.225 72.7667 189.6 73.9375 189.6 75.5375V78.3625C189.6 79.9542 189.225 81.125 188.475 81.875C187.734 82.625 186.563 83 184.963 83H182.913ZM179.85 78.3875C179.85 79.5292 180.071 80.3208 180.513 80.7625C180.963 81.2042 181.763 81.425 182.913 81.425H184.963C186.121 81.425 186.921 81.2042 187.363 80.7625C187.805 80.3125 188.025 79.5125 188.025 78.3625V75.5375C188.025 74.3792 187.805 73.5792 187.363 73.1375C186.921 72.6958 186.121 72.475 184.963 72.475H182.913C182.146 72.4667 181.538 72.5583 181.088 72.75C180.646 72.9333 180.33 73.25 180.138 73.7C179.946 74.1417 179.85 74.7542 179.85 75.5375V78.3875ZM194.82 83C194.295 83 194.032 82.7375 194.032 82.2125V71.6875C194.032 71.1625 194.295 70.9 194.82 70.9C195.345 70.9 195.607 71.1625 195.607 71.6875V73.2875C196.066 72.5125 196.695 71.9208 197.495 71.5125C198.295 71.1042 199.232 70.9 200.307 70.9C200.832 70.9 201.095 71.1625 201.095 71.6875C201.095 72.2125 200.832 72.475 200.307 72.475C198.841 72.475 197.707 72.7875 196.907 73.4125C196.116 74.0375 195.682 74.9083 195.607 76.025V82.2125C195.607 82.7375 195.345 83 194.82 83ZM204.533 77.575V78.3875C204.533 79.5292 204.754 80.3208 205.196 80.7625C205.646 81.2042 206.446 81.425 207.596 81.425H209.646C210.637 81.425 211.358 81.3083 211.808 81.075C212.266 80.8417 212.546 80.4375 212.646 79.8625C212.704 79.6125 212.796 79.425 212.921 79.3C213.046 79.175 213.233 79.1125 213.483 79.1125C213.741 79.1125 213.937 79.1833 214.071 79.325C214.212 79.4583 214.262 79.6583 214.221 79.925C214.087 80.9667 213.641 81.7417 212.883 82.25C212.133 82.75 211.054 83 209.646 83H207.596C206.004 83 204.833 82.625 204.083 81.875C203.333 81.125 202.958 79.9625 202.958 78.3875V75.5375C202.958 73.9208 203.333 72.7417 204.083 72C204.833 71.25 206.004 70.8833 207.596 70.9H209.646C211.246 70.9 212.416 71.275 213.158 72.025C213.908 72.7667 214.283 73.9375 214.283 75.5375V76.7875C214.283 77.3125 214.021 77.575 213.496 77.575H204.533ZM207.596 72.475C206.446 72.4583 205.646 72.6708 205.196 73.1125C204.754 73.5542 204.533 74.3625 204.533 75.5375V76H212.708V75.5375C212.708 74.3792 212.487 73.5792 212.046 73.1375C211.604 72.6958 210.804 72.475 209.646 72.475H207.596Z" fill="white"/>
<line y1="60.5" x2="236" y2="60.5" stroke="white"/>
</svg>
